<svg xmlns="http://www.w3.org/2000/svg" width="800" height="800" viewBox="0 0 800 800" role="img" aria-labelledby="title desc">
  <title id="title">Knowvia logo</title>
  <desc id="desc">A calm, route-inspired K mark for Knowvia, a health insurance clarity product.</desc>
  <defs>
    <linearGradient id="tide" x1="0" y1="0" x2="1" y2="1">
      <stop offset="0" stop-color="#163F42"/>
      <stop offset="1" stop-color="#0B383B"/>
    </linearGradient>
    <linearGradient id="gold" x1="0" y1="0" x2="1" y2="1">
      <stop offset="0" stop-color="#F1B53A"/>
      <stop offset="1" stop-color="#D58B17"/>
    </linearGradient>
  </defs>
  <rect width="800" height="800" rx="144" fill="url(#tide)"/>
  <circle cx="400" cy="400" r="290" fill="none" stroke="#176F69" stroke-width="2" opacity=".7"/>
  <circle cx="400" cy="400" r="240" fill="none" stroke="#176F69" stroke-width="2" opacity=".42"/>
  <circle cx="400" cy="400" r="190" fill="none" stroke="#176F69" stroke-width="2" opacity=".25"/>
  <path d="M120 126h178l378 548H498z" fill="#176F69" opacity=".17"/>
  <path d="M258 194v412M265 404l274-210M265 404l274 210" fill="none" stroke="#F3F7F6" stroke-width="46" stroke-linecap="round" stroke-linejoin="round"/>
  <path d="M265 404l274-210" fill="none" stroke="url(#gold)" stroke-width="46" stroke-linecap="round"/>
  <circle cx="265" cy="404" r="25" fill="#F3F7F6"/>
  <circle cx="265" cy="404" r="12" fill="#163F42"/>
  <path d="M557 159l42 42-42 42-42-42z" fill="url(#gold)"/>
  <path d="M557 180v43" stroke="#163F42" stroke-width="9" stroke-linecap="round" opacity=".88"/>
</svg>
